<svg xmlns="http://www.w3.org/2000/svg" width="400" height="400" viewBox="0 0 400 400">
  <!-- Dense Star Field Pattern — DriftApp Observatory Theme
       ~500 etoiles avec tailles et opacites variables, style boussole -->

  <circle cx="0.0" cy="0.0" r="0.3" fill="#3a3028" opacity="0.15"/>
  <circle cx="368.7" cy="73.2" r="0.9" fill="#3a3028" opacity="0.70"/>
  <circle cx="22.9" cy="10.8" r="0.3" fill="#3a3028" opacity="0.46"/>
  <circle cx="223.3" cy="107.8" r="0.3" fill="#3a3028" opacity="0.37"/>
  <circle cx="149.5" cy="84.6" r="0.3" fill="#3a3028" opacity="0.39"/>
  <circle cx="181.4" cy="22.5" r="1.3" fill="#3a3028" opacity="0.52"/>
  <circle cx="250.4" cy="390.0" r="0.3" fill="#3a3028" opacity="0.48"/>
  <circle cx="66.2" cy="48.9" r="0.4" fill="#3a3028" opacity="0.43"/>
  <circle cx="131.6" cy="133.8" r="2.4" fill="#3a3028" opacity="0.67"/>
  <circle cx="215.8" cy="368.0" r="0.5" fill="#3a3028" opacity="0.43"/>
  <circle cx="388.6" cy="291.7" r="0.7" fill="#3a3028" opacity="0.32"/>
  <circle cx="328.5" cy="312.7" r="0.7" fill="#3a3028" opacity="0.50"/>
  <circle cx="71.6" cy="191.0" r="0.7" fill="#3a3028" opacity="0.47"/>
  <circle cx="398.1" cy="110.9" r="0.3" fill="#3a3028" opacity="0.35"/>
  <circle cx="326.4" cy="199.1" r="0.4" fill="#3a3028" opacity="0.29"/>
  <circle cx="176.7" cy="247.5" r="0.9" fill="#3a3028" opacity="0.45"/>
  <circle cx="370.8" cy="391.3" r="0.3" fill="#3a3028" opacity="0.47"/>
  <circle cx="173.7" cy="275.4" r="0.6" fill="#3a3028" opacity="0.33"/>
  <circle cx="257.7" cy="310.5" r="0.3" fill="#3a3028" opacity="0.20"/>
  <circle cx="129.1" cy="348.9" r="0.5" fill="#3a3028" opacity="0.32"/>
  <circle cx="304.2" cy="96.0" r="0.4" fill="#3a3028" opacity="0.27"/>
  <circle cx="222.4" cy="284.4" r="0.6" fill="#3a3028" opacity="0.44"/>
  <circle cx="264.4" cy="123.9" r="0.7" fill="#3a3028" opacity="0.47"/>
  <circle cx="167.7" cy="185.4" r="0.7" fill="#3a3028" opacity="0.32"/>
  <circle cx="54.3" cy="168.6" r="0.4" fill="#3a3028" opacity="0.48"/>
  <circle cx="132.2" cy="120.7" r="0.4" fill="#3a3028" opacity="0.23"/>
  <circle cx="198.1" cy="142.4" r="0.5" fill="#3a3028" opacity="0.49"/>
  <circle cx="0.1" cy="373.1" r="1.3" fill="#3a3028" opacity="0.69"/>
  <circle cx="64.8" cy="267.2" r="0.9" fill="#3a3028" opacity="0.40"/>
  <circle cx="168.1" cy="390.4" r="0.8" fill="#3a3028" opacity="0.35"/>
  <circle cx="394.0" cy="120.3" r="0.6" fill="#3a3028" opacity="0.31"/>
  <circle cx="289.4" cy="143.5" r="0.6" fill="#3a3028" opacity="0.33"/>
  <circle cx="114.3" cy="310.5" r="0.7" fill="#3a3028" opacity="0.16"/>
  <circle cx="167.2" cy="229.9" r="0.7" fill="#3a3028" opacity="0.34"/>
  <circle cx="80.2" cy="247.4" r="0.3" fill="#3a3028" opacity="0.21"/>
  <circle cx="230.4" cy="259.6" r="0.4" fill="#3a3028" opacity="0.32"/>
  <circle cx="392.6" cy="105.9" r="0.7" fill="#3a3028" opacity="0.37"/>
  <circle cx="368.2" cy="321.9" r="0.6" fill="#3a3028" opacity="0.41"/>
  <circle cx="188.1" cy="94.4" r="0.4" fill="#3a3028" opacity="0.44"/>
  <circle cx="307.3" cy="323.0" r="0.7" fill="#3a3028" opacity="0.44"/>
  <circle cx="238.7" cy="250.6" r="1.2" fill="#3a3028" opacity="0.55"/>
  <circle cx="373.7" cy="76.2" r="1.2" fill="#3a3028" opacity="0.61"/>
  <circle cx="181.2" cy="211.4" r="2.4" fill="#3a3028" opacity="0.82"/>
  <circle cx="86.2" cy="171.9" r="0.8" fill="#3a3028" opacity="0.33"/>
  <circle cx="277.9" cy="269.1" r="0.3" fill="#3a3028" opacity="0.15"/>
  <circle cx="318.4" cy="124.9" r="0.3" fill="#3a3028" opacity="0.31"/>
  <circle cx="113.3" cy="262.3" r="0.4" fill="#3a3028" opacity="0.46"/>
  <circle cx="205.6" cy="185.1" r="0.8" fill="#3a3028" opacity="0.38"/>
  <circle cx="57.0" cy="267.0" r="0.6" fill="#3a3028" opacity="0.23"/>
  <circle cx="45.8" cy="57.3" r="0.6" fill="#3a3028" opacity="0.26"/>
  <circle cx="120.9" cy="289.2" r="0.6" fill="#3a3028" opacity="0.28"/>
  <circle cx="46.4" cy="139.7" r="0.6" fill="#3a3028" opacity="0.16"/>
  <circle cx="324.8" cy="0.2" r="0.5" fill="#3a3028" opacity="0.30"/>
  <circle cx="221.6" cy="353.1" r="1.2" fill="#3a3028" opacity="0.67"/>
  <circle cx="161.9" cy="195.0" r="1.2" fill="#3a3028" opacity="0.37"/>
  <circle cx="349.2" cy="320.9" r="0.4" fill="#3a3028" opacity="0.48"/>
  <circle cx="189.9" cy="262.3" r="0.6" fill="#3a3028" opacity="0.20"/>
  <circle cx="90.0" cy="283.7" r="1.1" fill="#3a3028" opacity="0.61"/>
  <circle cx="123.7" cy="187.0" r="1.3" fill="#3a3028" opacity="0.44"/>
  <circle cx="70.0" cy="34.7" r="0.8" fill="#3a3028" opacity="0.35"/>
  <circle cx="67.9" cy="109.7" r="0.7" fill="#3a3028" opacity="0.39"/>
  <circle cx="32.9" cy="132.0" r="0.3" fill="#3a3028" opacity="0.41"/>
  <circle cx="324.4" cy="5.4" r="0.6" fill="#3a3028" opacity="0.31"/>
  <circle cx="6.7" cy="349.7" r="0.4" fill="#3a3028" opacity="0.48"/>
  <circle cx="35.2" cy="38.1" r="0.5" fill="#3a3028" opacity="0.37"/>
  <circle cx="31.0" cy="88.8" r="0.4" fill="#3a3028" opacity="0.22"/>
  <circle cx="239.0" cy="302.8" r="0.3" fill="#3a3028" opacity="0.26"/>
  <circle cx="96.6" cy="182.0" r="2.6" fill="#3a3028" opacity="0.88"/>
  <circle cx="155.2" cy="182.8" r="0.4" fill="#3a3028" opacity="0.20"/>
  <circle cx="131.3" cy="152.2" r="0.5" fill="#3a3028" opacity="0.35"/>
  <circle cx="147.1" cy="121.0" r="0.7" fill="#3a3028" opacity="0.25"/>
  <circle cx="202.9" cy="215.9" r="2.0" fill="#3a3028" opacity="0.85"/>
  <circle cx="69.3" cy="145.2" r="0.5" fill="#3a3028" opacity="0.33"/>
  <circle cx="11.6" cy="98.2" r="1.1" fill="#3a3028" opacity="0.63"/>
  <circle cx="76.1" cy="138.8" r="0.3" fill="#3a3028" opacity="0.41"/>
  <circle cx="238.0" cy="92.5" r="1.1" fill="#3a3028" opacity="0.60"/>
  <circle cx="61.6" cy="166.1" r="1.4" fill="#3a3028" opacity="0.51"/>
  <circle cx="277.1" cy="10.4" r="0.4" fill="#3a3028" opacity="0.46"/>
  <circle cx="73.7" cy="226.3" r="1.4" fill="#3a3028" opacity="0.47"/>
  <circle cx="17.7" cy="285.3" r="0.3" fill="#3a3028" opacity="0.29"/>
  <circle cx="293.6" cy="67.6" r="1.0" fill="#3a3028" opacity="0.45"/>
  <circle cx="172.6" cy="41.5" r="0.4" fill="#3a3028" opacity="0.43"/>
  <circle cx="35.8" cy="286.9" r="1.2" fill="#3a3028" opacity="0.53"/>
  <circle cx="111.0" cy="159.6" r="1.2" fill="#3a3028" opacity="0.60"/>
  <circle cx="37.6" cy="207.0" r="0.4" fill="#3a3028" opacity="0.24"/>
  <circle cx="150.5" cy="140.0" r="0.8" fill="#3a3028" opacity="0.22"/>
  <circle cx="193.9" cy="106.6" r="1.2" fill="#3a3028" opacity="0.40"/>
  <circle cx="143.2" cy="50.3" r="0.8" fill="#3a3028" opacity="0.37"/>
  <circle cx="177.7" cy="123.6" r="0.7" fill="#3a3028" opacity="0.27"/>
  <circle cx="371.2" cy="121.5" r="0.4" fill="#3a3028" opacity="0.48"/>
  <circle cx="326.2" cy="26.0" r="0.6" fill="#3a3028" opacity="0.19"/>
  <circle cx="56.6" cy="375.5" r="0.5" fill="#3a3028" opacity="0.35"/>
  <circle cx="211.9" cy="9.9" r="0.3" fill="#3a3028" opacity="0.33"/>
  <circle cx="294.9" cy="19.7" r="0.6" fill="#3a3028" opacity="0.19"/>
  <circle cx="312.4" cy="324.5" r="1.2" fill="#3a3028" opacity="0.49"/>
  <circle cx="300.4" cy="175.4" r="0.6" fill="#3a3028" opacity="0.36"/>
  <circle cx="371.2" cy="397.2" r="1.3" fill="#3a3028" opacity="0.35"/>
  <circle cx="58.5" cy="217.3" r="0.4" fill="#3a3028" opacity="0.16"/>
  <circle cx="22.3" cy="103.8" r="0.4" fill="#3a3028" opacity="0.43"/>
  <circle cx="196.0" cy="362.0" r="0.7" fill="#3a3028" opacity="0.24"/>
  <circle cx="105.7" cy="378.6" r="0.4" fill="#3a3028" opacity="0.44"/>
  <circle cx="373.2" cy="312.6" r="0.7" fill="#3a3028" opacity="0.50"/>
  <circle cx="31.6" cy="39.5" r="0.8" fill="#3a3028" opacity="0.49"/>
  <circle cx="66.2" cy="387.5" r="0.7" fill="#3a3028" opacity="0.17"/>
  <circle cx="199.0" cy="163.4" r="0.4" fill="#3a3028" opacity="0.23"/>
  <circle cx="357.3" cy="11.9" r="1.2" fill="#3a3028" opacity="0.53"/>
  <circle cx="137.5" cy="321.6" r="0.7" fill="#3a3028" opacity="0.39"/>
  <circle cx="229.0" cy="313.8" r="1.0" fill="#3a3028" opacity="0.65"/>
  <circle cx="286.7" cy="69.1" r="0.7" fill="#3a3028" opacity="0.40"/>
  <circle cx="378.0" cy="148.0" r="0.5" fill="#3a3028" opacity="0.40"/>
  <circle cx="83.3" cy="26.0" r="0.4" fill="#3a3028" opacity="0.35"/>
  <circle cx="256.5" cy="291.0" r="0.8" fill="#3a3028" opacity="0.30"/>
  <circle cx="18.8" cy="65.8" r="0.7" fill="#3a3028" opacity="0.24"/>
  <circle cx="12.6" cy="264.9" r="1.1" fill="#3a3028" opacity="0.61"/>
  <circle cx="199.8" cy="305.8" r="0.6" fill="#3a3028" opacity="0.47"/>
  <circle cx="182.7" cy="257.6" r="0.7" fill="#3a3028" opacity="0.22"/>
  <circle cx="187.0" cy="208.1" r="0.6" fill="#3a3028" opacity="0.44"/>
  <circle cx="366.6" cy="322.8" r="0.8" fill="#3a3028" opacity="0.38"/>
  <circle cx="160.6" cy="75.9" r="0.6" fill="#3a3028" opacity="0.37"/>
  <circle cx="398.0" cy="26.0" r="0.6" fill="#3a3028" opacity="0.34"/>
  <circle cx="107.2" cy="193.1" r="0.4" fill="#3a3028" opacity="0.40"/>
  <circle cx="305.1" cy="6.3" r="3.0" fill="#3a3028" opacity="0.73"/>
  <circle cx="389.6" cy="34.6" r="1.2" fill="#3a3028" opacity="0.54"/>
  <circle cx="42.7" cy="71.3" r="1.8" fill="#3a3028" opacity="0.73"/>
  <circle cx="0.4" cy="51.3" r="0.6" fill="#3a3028" opacity="0.16"/>
  <circle cx="292.6" cy="21.0" r="0.6" fill="#3a3028" opacity="0.23"/>
  <circle cx="122.5" cy="288.0" r="0.4" fill="#3a3028" opacity="0.34"/>
  <circle cx="83.7" cy="8.5" r="0.4" fill="#3a3028" opacity="0.16"/>
  <circle cx="373.7" cy="240.3" r="3.0" fill="#3a3028" opacity="0.86"/>
  <circle cx="107.9" cy="295.2" r="1.2" fill="#3a3028" opacity="0.67"/>
  <circle cx="173.2" cy="363.5" r="0.7" fill="#3a3028" opacity="0.18"/>
  <circle cx="325.7" cy="47.3" r="0.7" fill="#3a3028" opacity="0.29"/>
  <circle cx="309.9" cy="1.0" r="0.8" fill="#3a3028" opacity="0.33"/>
  <circle cx="7.4" cy="98.6" r="0.6" fill="#3a3028" opacity="0.44"/>
  <circle cx="227.4" cy="389.5" r="2.4" fill="#3a3028" opacity="0.63"/>
  <circle cx="326.3" cy="209.5" r="0.4" fill="#3a3028" opacity="0.26"/>
  <circle cx="57.7" cy="352.3" r="0.4" fill="#3a3028" opacity="0.43"/>
  <circle cx="323.1" cy="61.7" r="0.7" fill="#3a3028" opacity="0.47"/>
  <circle cx="329.9" cy="310.4" r="0.6" fill="#3a3028" opacity="0.33"/>
  <circle cx="78.4" cy="37.8" r="0.4" fill="#3a3028" opacity="0.19"/>
  <circle cx="176.2" cy="97.2" r="1.5" fill="#3a3028" opacity="0.89"/>
  <circle cx="309.7" cy="20.5" r="1.1" fill="#3a3028" opacity="0.53"/>
  <circle cx="307.8" cy="20.1" r="0.9" fill="#3a3028" opacity="0.64"/>
  <circle cx="346.4" cy="150.5" r="0.8" fill="#3a3028" opacity="0.42"/>
  <circle cx="33.2" cy="175.5" r="0.7" fill="#3a3028" opacity="0.44"/>
  <circle cx="289.0" cy="302.3" r="0.8" fill="#3a3028" opacity="0.35"/>
  <circle cx="333.5" cy="92.2" r="0.5" fill="#3a3028" opacity="0.29"/>
  <circle cx="371.7" cy="182.5" r="0.7" fill="#3a3028" opacity="0.33"/>
  <circle cx="240.4" cy="35.8" r="0.5" fill="#3a3028" opacity="0.38"/>
  <circle cx="192.5" cy="309.9" r="0.8" fill="#3a3028" opacity="0.50"/>
  <circle cx="362.2" cy="217.4" r="0.6" fill="#3a3028" opacity="0.45"/>
  <circle cx="6.6" cy="25.1" r="0.3" fill="#3a3028" opacity="0.28"/>
  <circle cx="32.7" cy="339.4" r="0.8" fill="#3a3028" opacity="0.34"/>
  <circle cx="284.1" cy="273.3" r="0.4" fill="#3a3028" opacity="0.21"/>
  <circle cx="208.8" cy="187.2" r="0.5" fill="#3a3028" opacity="0.39"/>
  <circle cx="357.0" cy="113.7" r="0.9" fill="#3a3028" opacity="0.59"/>
  <circle cx="379.6" cy="151.2" r="0.3" fill="#3a3028" opacity="0.45"/>
  <circle cx="209.0" cy="70.9" r="0.3" fill="#3a3028" opacity="0.33"/>
  <circle cx="100.9" cy="264.5" r="0.7" fill="#3a3028" opacity="0.24"/>
  <circle cx="132.6" cy="32.6" r="1.0" fill="#3a3028" opacity="0.44"/>
  <circle cx="363.4" cy="135.8" r="0.3" fill="#3a3028" opacity="0.25"/>
  <circle cx="219.8" cy="45.6" r="0.4" fill="#3a3028" opacity="0.19"/>
  <circle cx="30.9" cy="288.1" r="1.1" fill="#3a3028" opacity="0.53"/>
  <circle cx="206.3" cy="283.2" r="0.7" fill="#3a3028" opacity="0.41"/>
  <circle cx="71.0" cy="88.4" r="0.6" fill="#3a3028" opacity="0.27"/>
  <circle cx="181.2" cy="319.0" r="1.5" fill="#3a3028" opacity="0.36"/>
  <circle cx="290.2" cy="375.6" r="1.0" fill="#3a3028" opacity="0.48"/>
  <circle cx="298.5" cy="24.0" r="0.8" fill="#3a3028" opacity="0.40"/>
  <circle cx="201.5" cy="341.9" r="0.4" fill="#3a3028" opacity="0.44"/>
  <circle cx="269.3" cy="65.7" r="0.6" fill="#3a3028" opacity="0.48"/>
  <circle cx="8.7" cy="146.8" r="0.6" fill="#3a3028" opacity="0.41"/>
  <circle cx="288.7" cy="300.5" r="1.2" fill="#3a3028" opacity="0.45"/>
  <circle cx="344.8" cy="91.8" r="2.4" fill="#3a3028" opacity="0.81"/>
  <circle cx="320.0" cy="218.1" r="0.6" fill="#3a3028" opacity="0.34"/>
  <circle cx="199.1" cy="295.3" r="0.8" fill="#3a3028" opacity="0.50"/>
  <circle cx="253.3" cy="10.2" r="0.7" fill="#3a3028" opacity="0.20"/>
  <circle cx="72.5" cy="11.8" r="0.3" fill="#3a3028" opacity="0.23"/>
  <circle cx="155.5" cy="246.9" r="0.7" fill="#3a3028" opacity="0.35"/>
  <circle cx="389.4" cy="287.7" r="0.4" fill="#3a3028" opacity="0.42"/>
  <circle cx="137.8" cy="157.9" r="0.7" fill="#3a3028" opacity="0.50"/>
  <circle cx="389.3" cy="100.4" r="0.5" fill="#3a3028" opacity="0.32"/>
  <circle cx="186.1" cy="15.4" r="1.4" fill="#3a3028" opacity="0.36"/>
  <circle cx="280.4" cy="397.3" r="2.1" fill="#3a3028" opacity="0.87"/>
  <circle cx="331.2" cy="56.5" r="0.4" fill="#3a3028" opacity="0.18"/>
  <circle cx="0.5" cy="137.0" r="0.6" fill="#3a3028" opacity="0.34"/>
  <circle cx="32.8" cy="267.1" r="1.2" fill="#3a3028" opacity="0.45"/>
  <circle cx="362.3" cy="288.0" r="0.6" fill="#3a3028" opacity="0.20"/>
  <circle cx="288.8" cy="22.5" r="0.8" fill="#3a3028" opacity="0.55"/>
  <circle cx="182.5" cy="16.5" r="0.6" fill="#3a3028" opacity="0.25"/>
  <circle cx="55.0" cy="242.3" r="0.4" fill="#3a3028" opacity="0.31"/>
  <circle cx="244.3" cy="275.0" r="0.7" fill="#3a3028" opacity="0.26"/>
  <circle cx="72.1" cy="338.6" r="0.5" fill="#3a3028" opacity="0.26"/>
  <circle cx="225.4" cy="66.9" r="0.8" fill="#3a3028" opacity="0.45"/>
  <circle cx="37.7" cy="22.6" r="1.0" fill="#3a3028" opacity="0.61"/>
  <circle cx="389.6" cy="328.2" r="0.8" fill="#3a3028" opacity="0.70"/>
  <circle cx="251.0" cy="137.6" r="1.7" fill="#3a3028" opacity="0.76"/>
  <circle cx="122.0" cy="207.6" r="0.4" fill="#3a3028" opacity="0.26"/>
  <circle cx="317.3" cy="263.9" r="0.6" fill="#3a3028" opacity="0.49"/>
  <circle cx="63.6" cy="250.4" r="1.0" fill="#3a3028" opacity="0.49"/>
  <circle cx="187.0" cy="80.6" r="0.5" fill="#3a3028" opacity="0.30"/>
  <circle cx="233.1" cy="67.4" r="0.6" fill="#3a3028" opacity="0.28"/>
  <circle cx="69.5" cy="73.5" r="0.6" fill="#3a3028" opacity="0.24"/>
  <circle cx="208.9" cy="224.0" r="0.5" fill="#3a3028" opacity="0.44"/>
  <circle cx="148.5" cy="216.0" r="0.3" fill="#3a3028" opacity="0.25"/>
  <circle cx="347.4" cy="243.1" r="0.6" fill="#3a3028" opacity="0.26"/>
  <circle cx="255.9" cy="394.5" r="0.5" fill="#3a3028" opacity="0.36"/>
  <circle cx="107.9" cy="366.6" r="0.5" fill="#3a3028" opacity="0.17"/>
  <circle cx="354.7" cy="172.0" r="0.5" fill="#3a3028" opacity="0.23"/>
  <circle cx="388.6" cy="146.2" r="0.6" fill="#3a3028" opacity="0.42"/>
  <circle cx="169.7" cy="30.6" r="0.3" fill="#3a3028" opacity="0.23"/>
  <circle cx="108.7" cy="231.3" r="1.0" fill="#3a3028" opacity="0.42"/>
  <circle cx="85.2" cy="162.7" r="1.1" fill="#3a3028" opacity="0.65"/>
  <circle cx="326.4" cy="263.5" r="1.2" fill="#3a3028" opacity="0.58"/>
  <circle cx="318.9" cy="388.5" r="0.7" fill="#3a3028" opacity="0.20"/>
  <circle cx="236.4" cy="129.8" r="0.6" fill="#3a3028" opacity="0.35"/>
  <circle cx="91.0" cy="47.6" r="1.4" fill="#3a3028" opacity="0.69"/>
  <circle cx="396.7" cy="343.5" r="0.7" fill="#3a3028" opacity="0.46"/>
  <circle cx="45.8" cy="244.4" r="0.7" fill="#3a3028" opacity="0.26"/>
  <circle cx="345.9" cy="2.4" r="0.5" fill="#3a3028" opacity="0.49"/>
  <circle cx="145.0" cy="168.9" r="0.4" fill="#3a3028" opacity="0.35"/>
  <circle cx="250.4" cy="375.5" r="0.7" fill="#3a3028" opacity="0.20"/>
  <circle cx="195.2" cy="272.1" r="1.6" fill="#3a3028" opacity="0.77"/>
  <circle cx="115.9" cy="120.8" r="0.6" fill="#3a3028" opacity="0.19"/>
  <circle cx="295.1" cy="338.3" r="0.5" fill="#3a3028" opacity="0.33"/>
  <circle cx="191.1" cy="293.8" r="1.6" fill="#3a3028" opacity="0.76"/>
  <circle cx="198.6" cy="258.7" r="0.3" fill="#3a3028" opacity="0.28"/>
  <circle cx="29.4" cy="323.3" r="0.8" fill="#3a3028" opacity="0.34"/>
  <circle cx="199.1" cy="31.5" r="0.9" fill="#3a3028" opacity="0.70"/>
  <circle cx="333.6" cy="71.1" r="0.7" fill="#3a3028" opacity="0.30"/>
  <circle cx="158.3" cy="264.7" r="0.5" fill="#3a3028" opacity="0.21"/>
  <circle cx="339.5" cy="57.2" r="0.6" fill="#3a3028" opacity="0.49"/>
  <circle cx="223.7" cy="183.0" r="0.5" fill="#3a3028" opacity="0.27"/>
  <circle cx="292.8" cy="166.0" r="1.5" fill="#3a3028" opacity="0.38"/>
  <circle cx="158.8" cy="125.6" r="0.7" fill="#3a3028" opacity="0.35"/>
  <circle cx="137.0" cy="188.2" r="0.5" fill="#3a3028" opacity="0.42"/>
  <circle cx="241.5" cy="168.3" r="0.6" fill="#3a3028" opacity="0.40"/>
  <circle cx="93.9" cy="321.7" r="0.7" fill="#3a3028" opacity="0.33"/>
  <circle cx="163.8" cy="366.0" r="1.1" fill="#3a3028" opacity="0.50"/>
  <circle cx="251.0" cy="68.2" r="0.4" fill="#3a3028" opacity="0.50"/>
  <circle cx="159.4" cy="47.4" r="0.6" fill="#3a3028" opacity="0.48"/>
  <circle cx="267.4" cy="233.5" r="0.5" fill="#3a3028" opacity="0.48"/>
  <circle cx="281.4" cy="20.2" r="0.4" fill="#3a3028" opacity="0.32"/>
  <circle cx="196.5" cy="161.5" r="1.5" fill="#3a3028" opacity="0.40"/>
  <circle cx="45.0" cy="172.6" r="2.4" fill="#3a3028" opacity="0.90"/>
  <circle cx="141.6" cy="114.8" r="0.5" fill="#3a3028" opacity="0.29"/>
  <circle cx="138.0" cy="348.4" r="1.6" fill="#3a3028" opacity="0.87"/>
  <circle cx="298.1" cy="119.2" r="2.5" fill="#3a3028" opacity="0.93"/>
  <circle cx="376.8" cy="255.3" r="0.7" fill="#3a3028" opacity="0.50"/>
  <circle cx="217.4" cy="366.8" r="0.6" fill="#3a3028" opacity="0.49"/>
  <circle cx="233.5" cy="379.4" r="0.8" fill="#3a3028" opacity="0.15"/>
  <circle cx="305.8" cy="84.8" r="0.9" fill="#3a3028" opacity="0.53"/>
  <circle cx="128.2" cy="69.5" r="1.9" fill="#3a3028" opacity="0.92"/>
  <circle cx="260.7" cy="363.7" r="0.7" fill="#3a3028" opacity="0.37"/>
  <circle cx="17.2" cy="367.8" r="0.7" fill="#3a3028" opacity="0.20"/>
  <circle cx="394.8" cy="80.2" r="0.4" fill="#3a3028" opacity="0.37"/>
  <circle cx="385.5" cy="192.5" r="1.3" fill="#3a3028" opacity="0.35"/>
  <circle cx="344.5" cy="33.4" r="0.8" fill="#3a3028" opacity="0.33"/>
  <circle cx="142.3" cy="187.3" r="0.8" fill="#3a3028" opacity="0.48"/>
  <circle cx="75.1" cy="189.5" r="1.2" fill="#3a3028" opacity="0.40"/>
  <circle cx="131.4" cy="124.1" r="0.4" fill="#3a3028" opacity="0.47"/>
  <circle cx="246.0" cy="154.7" r="2.3" fill="#3a3028" opacity="0.87"/>
  <circle cx="11.8" cy="91.5" r="2.3" fill="#3a3028" opacity="0.91"/>
  <circle cx="240.5" cy="54.6" r="0.8" fill="#3a3028" opacity="0.50"/>
  <circle cx="389.4" cy="273.2" r="0.6" fill="#3a3028" opacity="0.47"/>
  <circle cx="367.9" cy="202.8" r="0.5" fill="#3a3028" opacity="0.27"/>
  <circle cx="195.4" cy="92.8" r="0.5" fill="#3a3028" opacity="0.39"/>
  <circle cx="7.3" cy="301.5" r="0.6" fill="#3a3028" opacity="0.47"/>
  <circle cx="101.5" cy="14.8" r="0.5" fill="#3a3028" opacity="0.46"/>
  <circle cx="246.7" cy="373.1" r="2.9" fill="#3a3028" opacity="0.92"/>
  <circle cx="252.8" cy="0.8" r="0.7" fill="#3a3028" opacity="0.16"/>
  <circle cx="160.7" cy="190.5" r="0.6" fill="#3a3028" opacity="0.36"/>
  <circle cx="101.0" cy="260.9" r="0.7" fill="#3a3028" opacity="0.44"/>
  <circle cx="214.3" cy="309.1" r="0.3" fill="#3a3028" opacity="0.32"/>
  <circle cx="112.5" cy="287.3" r="3.0" fill="#3a3028" opacity="0.63"/>
  <circle cx="205.1" cy="169.3" r="0.9" fill="#3a3028" opacity="0.51"/>
  <circle cx="197.4" cy="263.3" r="0.9" fill="#3a3028" opacity="0.70"/>
  <circle cx="177.8" cy="198.1" r="0.9" fill="#3a3028" opacity="0.50"/>
  <circle cx="325.8" cy="73.9" r="0.4" fill="#3a3028" opacity="0.21"/>
  <circle cx="172.9" cy="130.2" r="0.8" fill="#3a3028" opacity="0.50"/>
  <circle cx="100.8" cy="81.2" r="0.4" fill="#3a3028" opacity="0.36"/>
  <circle cx="152.3" cy="216.7" r="1.4" fill="#3a3028" opacity="0.52"/>
  <circle cx="47.6" cy="0.9" r="2.3" fill="#3a3028" opacity="0.62"/>
  <circle cx="139.6" cy="108.6" r="1.3" fill="#3a3028" opacity="0.52"/>
  <circle cx="109.5" cy="343.2" r="0.6" fill="#3a3028" opacity="0.38"/>
  <circle cx="143.7" cy="390.6" r="0.8" fill="#3a3028" opacity="0.45"/>
  <circle cx="348.7" cy="285.7" r="3.0" fill="#3a3028" opacity="0.61"/>
  <circle cx="212.8" cy="380.6" r="1.0" fill="#3a3028" opacity="0.61"/>
  <circle cx="134.5" cy="331.4" r="0.5" fill="#3a3028" opacity="0.23"/>
  <circle cx="93.7" cy="251.9" r="0.6" fill="#3a3028" opacity="0.45"/>
  <circle cx="147.8" cy="377.4" r="0.6" fill="#3a3028" opacity="0.24"/>
  <circle cx="274.6" cy="20.8" r="1.5" fill="#3a3028" opacity="0.94"/>
  <circle cx="207.7" cy="101.1" r="0.5" fill="#3a3028" opacity="0.32"/>
  <circle cx="358.8" cy="230.4" r="1.0" fill="#3a3028" opacity="0.37"/>
  <circle cx="291.8" cy="287.2" r="0.5" fill="#3a3028" opacity="0.27"/>
  <circle cx="225.8" cy="181.8" r="0.6" fill="#3a3028" opacity="0.16"/>
  <circle cx="123.7" cy="134.3" r="2.5" fill="#3a3028" opacity="0.82"/>
  <circle cx="395.1" cy="377.5" r="0.8" fill="#3a3028" opacity="0.61"/>
  <circle cx="12.5" cy="301.2" r="0.4" fill="#3a3028" opacity="0.35"/>
  <circle cx="117.2" cy="360.1" r="1.8" fill="#3a3028" opacity="0.91"/>
  <circle cx="352.0" cy="318.8" r="1.3" fill="#3a3028" opacity="0.48"/>
  <circle cx="62.7" cy="149.7" r="0.9" fill="#3a3028" opacity="0.63"/>
  <circle cx="120.3" cy="354.9" r="1.2" fill="#3a3028" opacity="0.66"/>
  <circle cx="357.0" cy="39.5" r="0.5" fill="#3a3028" opacity="0.42"/>
  <circle cx="182.7" cy="109.1" r="1.4" fill="#3a3028" opacity="0.65"/>
  <circle cx="226.9" cy="24.0" r="0.5" fill="#3a3028" opacity="0.38"/>
  <circle cx="283.2" cy="349.0" r="1.9" fill="#3a3028" opacity="0.92"/>
  <circle cx="90.1" cy="20.5" r="0.7" fill="#3a3028" opacity="0.39"/>
  <circle cx="136.0" cy="143.2" r="0.5" fill="#3a3028" opacity="0.31"/>
  <circle cx="291.9" cy="356.7" r="1.4" fill="#3a3028" opacity="0.59"/>
  <circle cx="377.1" cy="64.3" r="1.2" fill="#3a3028" opacity="0.50"/>
  <circle cx="179.3" cy="188.1" r="0.4" fill="#3a3028" opacity="0.47"/>
  <circle cx="249.0" cy="202.0" r="0.4" fill="#3a3028" opacity="0.28"/>
  <circle cx="167.7" cy="8.0" r="0.3" fill="#3a3028" opacity="0.44"/>
  <circle cx="146.2" cy="256.3" r="0.8" fill="#3a3028" opacity="0.38"/>
  <circle cx="252.7" cy="282.6" r="0.7" fill="#3a3028" opacity="0.27"/>
  <circle cx="381.4" cy="276.9" r="0.5" fill="#3a3028" opacity="0.28"/>
  <circle cx="39.0" cy="187.5" r="0.5" fill="#3a3028" opacity="0.21"/>
  <circle cx="55.0" cy="211.3" r="0.7" fill="#3a3028" opacity="0.15"/>
  <circle cx="349.7" cy="236.9" r="1.1" fill="#3a3028" opacity="0.55"/>
  <circle cx="367.2" cy="339.0" r="1.4" fill="#3a3028" opacity="0.64"/>
  <circle cx="326.5" cy="59.9" r="0.9" fill="#3a3028" opacity="0.65"/>
  <circle cx="370.1" cy="176.0" r="0.9" fill="#3a3028" opacity="0.49"/>
  <circle cx="312.4" cy="8.9" r="1.0" fill="#3a3028" opacity="0.46"/>
  <circle cx="139.8" cy="341.2" r="0.6" fill="#3a3028" opacity="0.20"/>
  <circle cx="238.6" cy="28.7" r="0.8" fill="#3a3028" opacity="0.49"/>
  <circle cx="129.2" cy="60.0" r="0.4" fill="#3a3028" opacity="0.39"/>
  <circle cx="286.3" cy="216.4" r="0.4" fill="#3a3028" opacity="0.17"/>
  <circle cx="288.9" cy="331.5" r="0.3" fill="#3a3028" opacity="0.40"/>
  <circle cx="261.2" cy="293.1" r="1.0" fill="#3a3028" opacity="0.57"/>
  <circle cx="328.0" cy="75.4" r="0.4" fill="#3a3028" opacity="0.17"/>
  <circle cx="355.3" cy="25.4" r="0.7" fill="#3a3028" opacity="0.19"/>
  <circle cx="155.3" cy="232.2" r="0.6" fill="#3a3028" opacity="0.48"/>
  <circle cx="305.9" cy="221.7" r="0.3" fill="#3a3028" opacity="0.21"/>
  <circle cx="348.9" cy="70.7" r="0.7" fill="#3a3028" opacity="0.37"/>
  <circle cx="124.8" cy="270.9" r="0.6" fill="#3a3028" opacity="0.17"/>
  <circle cx="381.0" cy="111.8" r="2.1" fill="#3a3028" opacity="0.84"/>
  <circle cx="130.6" cy="135.5" r="0.3" fill="#3a3028" opacity="0.28"/>
  <circle cx="391.1" cy="197.8" r="0.6" fill="#3a3028" opacity="0.37"/>
  <circle cx="222.6" cy="109.3" r="0.5" fill="#3a3028" opacity="0.44"/>
  <circle cx="354.4" cy="51.7" r="0.4" fill="#3a3028" opacity="0.19"/>
  <circle cx="344.1" cy="198.9" r="0.7" fill="#3a3028" opacity="0.43"/>
  <circle cx="285.9" cy="399.7" r="0.5" fill="#3a3028" opacity="0.39"/>
  <circle cx="121.0" cy="289.7" r="0.7" fill="#3a3028" opacity="0.23"/>
  <circle cx="337.0" cy="32.3" r="0.4" fill="#3a3028" opacity="0.41"/>
  <circle cx="181.5" cy="47.9" r="0.4" fill="#3a3028" opacity="0.28"/>
  <circle cx="210.7" cy="165.8" r="0.8" fill="#3a3028" opacity="0.56"/>
  <circle cx="219.7" cy="36.9" r="0.6" fill="#3a3028" opacity="0.19"/>
  <circle cx="75.1" cy="129.9" r="1.3" fill="#3a3028" opacity="0.49"/>
  <circle cx="95.6" cy="46.5" r="0.7" fill="#3a3028" opacity="0.31"/>
  <circle cx="261.2" cy="123.9" r="1.9" fill="#3a3028" opacity="0.82"/>
  <circle cx="272.3" cy="289.8" r="0.4" fill="#3a3028" opacity="0.19"/>
  <circle cx="173.3" cy="136.6" r="0.8" fill="#3a3028" opacity="0.47"/>
  <circle cx="314.1" cy="173.4" r="0.4" fill="#3a3028" opacity="0.38"/>
  <circle cx="150.0" cy="332.5" r="0.4" fill="#3a3028" opacity="0.50"/>
  <circle cx="141.8" cy="112.5" r="0.3" fill="#3a3028" opacity="0.28"/>
  <circle cx="175.2" cy="143.7" r="0.6" fill="#3a3028" opacity="0.39"/>
  <circle cx="354.5" cy="107.0" r="0.7" fill="#3a3028" opacity="0.30"/>
  <circle cx="296.4" cy="94.9" r="0.4" fill="#3a3028" opacity="0.49"/>
  <circle cx="79.4" cy="164.5" r="0.8" fill="#3a3028" opacity="0.44"/>
  <circle cx="151.3" cy="384.8" r="0.8" fill="#3a3028" opacity="0.57"/>
  <circle cx="152.7" cy="191.5" r="0.6" fill="#3a3028" opacity="0.32"/>
  <circle cx="338.7" cy="336.4" r="0.5" fill="#3a3028" opacity="0.30"/>
  <circle cx="198.6" cy="356.5" r="0.5" fill="#3a3028" opacity="0.20"/>
  <circle cx="42.2" cy="143.7" r="0.4" fill="#3a3028" opacity="0.36"/>
  <circle cx="317.7" cy="235.6" r="2.0" fill="#3a3028" opacity="0.93"/>
  <circle cx="51.7" cy="306.0" r="0.4" fill="#3a3028" opacity="0.40"/>
  <circle cx="202.7" cy="102.4" r="0.5" fill="#3a3028" opacity="0.49"/>
  <circle cx="55.3" cy="344.7" r="0.8" fill="#3a3028" opacity="0.17"/>
  <circle cx="358.3" cy="353.8" r="0.4" fill="#3a3028" opacity="0.29"/>
  <circle cx="304.6" cy="368.2" r="0.3" fill="#3a3028" opacity="0.30"/>
  <circle cx="376.3" cy="398.9" r="0.6" fill="#3a3028" opacity="0.37"/>
  <circle cx="151.8" cy="394.9" r="0.6" fill="#3a3028" opacity="0.18"/>
  <circle cx="359.3" cy="82.2" r="1.3" fill="#3a3028" opacity="0.62"/>
  <circle cx="245.5" cy="137.3" r="0.7" fill="#3a3028" opacity="0.21"/>
  <circle cx="121.3" cy="224.5" r="0.6" fill="#3a3028" opacity="0.22"/>
  <circle cx="365.9" cy="376.3" r="0.4" fill="#3a3028" opacity="0.46"/>
  <circle cx="165.0" cy="326.6" r="1.0" fill="#3a3028" opacity="0.48"/>
  <circle cx="163.8" cy="343.1" r="0.5" fill="#3a3028" opacity="0.29"/>
  <circle cx="353.8" cy="43.8" r="1.4" fill="#3a3028" opacity="0.67"/>
  <circle cx="189.3" cy="374.3" r="0.3" fill="#3a3028" opacity="0.44"/>
  <circle cx="373.3" cy="140.0" r="0.3" fill="#3a3028" opacity="0.27"/>
  <circle cx="10.4" cy="289.1" r="0.6" fill="#3a3028" opacity="0.35"/>
  <circle cx="14.9" cy="204.7" r="0.7" fill="#3a3028" opacity="0.37"/>
  <circle cx="115.1" cy="324.1" r="0.7" fill="#3a3028" opacity="0.44"/>
  <circle cx="48.6" cy="92.5" r="1.2" fill="#3a3028" opacity="0.39"/>
  <circle cx="326.3" cy="263.1" r="1.2" fill="#3a3028" opacity="0.66"/>
  <circle cx="116.3" cy="379.8" r="0.8" fill="#3a3028" opacity="0.20"/>
  <circle cx="390.3" cy="208.4" r="0.5" fill="#3a3028" opacity="0.23"/>
  <circle cx="262.3" cy="293.0" r="0.5" fill="#3a3028" opacity="0.30"/>
  <circle cx="331.3" cy="290.1" r="0.6" fill="#3a3028" opacity="0.31"/>
  <circle cx="213.9" cy="181.4" r="0.4" fill="#3a3028" opacity="0.45"/>
  <circle cx="86.3" cy="131.4" r="1.3" fill="#3a3028" opacity="0.63"/>
  <circle cx="90.2" cy="250.5" r="0.6" fill="#3a3028" opacity="0.16"/>
  <circle cx="83.3" cy="268.4" r="2.0" fill="#3a3028" opacity="0.77"/>
  <circle cx="99.1" cy="321.2" r="2.7" fill="#3a3028" opacity="0.71"/>
  <circle cx="73.0" cy="193.0" r="1.5" fill="#3a3028" opacity="0.64"/>
  <circle cx="260.9" cy="13.9" r="0.4" fill="#3a3028" opacity="0.31"/>
  <circle cx="216.2" cy="308.1" r="0.8" fill="#3a3028" opacity="0.17"/>
  <circle cx="327.2" cy="53.8" r="1.1" fill="#3a3028" opacity="0.46"/>
  <circle cx="298.6" cy="313.6" r="0.5" fill="#3a3028" opacity="0.28"/>
  <circle cx="52.3" cy="22.4" r="0.6" fill="#3a3028" opacity="0.32"/>
  <circle cx="291.6" cy="313.0" r="0.6" fill="#3a3028" opacity="0.44"/>
  <circle cx="230.6" cy="302.4" r="2.0" fill="#3a3028" opacity="0.93"/>
  <circle cx="244.5" cy="203.5" r="0.5" fill="#3a3028" opacity="0.50"/>
  <circle cx="185.2" cy="335.0" r="0.7" fill="#3a3028" opacity="0.48"/>
  <circle cx="236.1" cy="155.2" r="1.3" fill="#3a3028" opacity="0.39"/>
  <circle cx="11.8" cy="270.0" r="0.5" fill="#3a3028" opacity="0.24"/>
  <circle cx="307.6" cy="295.0" r="2.7" fill="#3a3028" opacity="0.90"/>
  <circle cx="345.8" cy="65.6" r="1.1" fill="#3a3028" opacity="0.43"/>
  <circle cx="173.4" cy="325.0" r="0.5" fill="#3a3028" opacity="0.38"/>
  <circle cx="147.2" cy="123.7" r="0.8" fill="#3a3028" opacity="0.17"/>
  <circle cx="79.8" cy="289.3" r="0.7" fill="#3a3028" opacity="0.20"/>
  <circle cx="302.8" cy="391.0" r="0.7" fill="#3a3028" opacity="0.18"/>
  <circle cx="348.9" cy="215.8" r="0.6" fill="#3a3028" opacity="0.34"/>
  <circle cx="116.1" cy="31.0" r="1.6" fill="#3a3028" opacity="0.78"/>
  <circle cx="254.1" cy="86.7" r="0.6" fill="#3a3028" opacity="0.43"/>
  <circle cx="351.8" cy="156.7" r="0.9" fill="#3a3028" opacity="0.44"/>
  <circle cx="304.7" cy="127.8" r="1.4" fill="#3a3028" opacity="0.64"/>
  <circle cx="210.4" cy="397.0" r="1.8" fill="#3a3028" opacity="0.83"/>
  <circle cx="257.2" cy="135.7" r="0.5" fill="#3a3028" opacity="0.27"/>
  <circle cx="143.9" cy="208.6" r="0.6" fill="#3a3028" opacity="0.16"/>
  <circle cx="158.4" cy="301.8" r="1.2" fill="#3a3028" opacity="0.44"/>
  <circle cx="134.9" cy="186.1" r="0.4" fill="#3a3028" opacity="0.49"/>
  <circle cx="293.1" cy="59.6" r="0.8" fill="#3a3028" opacity="0.26"/>
  <circle cx="16.4" cy="192.1" r="0.4" fill="#3a3028" opacity="0.34"/>
  <circle cx="133.4" cy="386.0" r="0.3" fill="#3a3028" opacity="0.31"/>
  <circle cx="242.5" cy="169.9" r="0.6" fill="#3a3028" opacity="0.16"/>
  <circle cx="339.1" cy="316.6" r="0.6" fill="#3a3028" opacity="0.47"/>
  <circle cx="392.6" cy="146.4" r="0.6" fill="#3a3028" opacity="0.17"/>
  <circle cx="318.8" cy="273.7" r="0.9" fill="#3a3028" opacity="0.58"/>
  <circle cx="328.7" cy="86.4" r="0.9" fill="#3a3028" opacity="0.36"/>
  <circle cx="27.3" cy="289.4" r="1.9" fill="#3a3028" opacity="0.74"/>
  <circle cx="42.7" cy="305.0" r="1.0" fill="#3a3028" opacity="0.65"/>
  <circle cx="97.2" cy="225.8" r="1.0" fill="#3a3028" opacity="0.44"/>
  <circle cx="296.8" cy="87.3" r="0.4" fill="#3a3028" opacity="0.35"/>
  <circle cx="14.3" cy="28.2" r="2.9" fill="#3a3028" opacity="0.74"/>
  <circle cx="234.1" cy="18.0" r="0.7" fill="#3a3028" opacity="0.17"/>
  <circle cx="256.3" cy="64.8" r="0.6" fill="#3a3028" opacity="0.19"/>
  <circle cx="287.8" cy="48.1" r="0.4" fill="#3a3028" opacity="0.25"/>
  <circle cx="286.4" cy="202.6" r="1.2" fill="#3a3028" opacity="0.62"/>
  <circle cx="92.2" cy="315.2" r="1.2" fill="#3a3028" opacity="0.49"/>
  <circle cx="365.2" cy="180.1" r="0.8" fill="#3a3028" opacity="0.24"/>
  <circle cx="11.3" cy="113.1" r="1.1" fill="#3a3028" opacity="0.49"/>
  <circle cx="341.1" cy="50.7" r="2.3" fill="#3a3028" opacity="0.80"/>
  <circle cx="301.0" cy="126.7" r="0.6" fill="#3a3028" opacity="0.46"/>
  <circle cx="395.3" cy="160.6" r="0.4" fill="#3a3028" opacity="0.40"/>
  <circle cx="330.7" cy="92.8" r="0.7" fill="#3a3028" opacity="0.22"/>
  <circle cx="301.9" cy="225.6" r="0.3" fill="#3a3028" opacity="0.34"/>
  <circle cx="173.7" cy="375.2" r="0.4" fill="#3a3028" opacity="0.37"/>
  <circle cx="31.9" cy="118.0" r="0.8" fill="#3a3028" opacity="0.40"/>
  <circle cx="281.9" cy="70.9" r="0.7" fill="#3a3028" opacity="0.44"/>
  <circle cx="221.3" cy="192.1" r="0.5" fill="#3a3028" opacity="0.25"/>
  <circle cx="298.3" cy="295.9" r="0.7" fill="#3a3028" opacity="0.22"/>
  <circle cx="277.2" cy="387.6" r="0.5" fill="#3a3028" opacity="0.36"/>
  <circle cx="272.0" cy="93.7" r="0.3" fill="#3a3028" opacity="0.32"/>
  <circle cx="189.7" cy="64.9" r="0.6" fill="#3a3028" opacity="0.22"/>
  <circle cx="97.2" cy="192.2" r="0.4" fill="#3a3028" opacity="0.20"/>
  <circle cx="231.4" cy="145.2" r="0.5" fill="#3a3028" opacity="0.22"/>
  <circle cx="160.6" cy="99.6" r="1.4" fill="#3a3028" opacity="0.36"/>
  <circle cx="54.7" cy="77.6" r="0.7" fill="#3a3028" opacity="0.25"/>
  <circle cx="121.1" cy="25.6" r="0.9" fill="#3a3028" opacity="0.36"/>
  <circle cx="381.2" cy="181.3" r="1.3" fill="#3a3028" opacity="0.40"/>
  <circle cx="186.7" cy="186.1" r="0.6" fill="#3a3028" opacity="0.33"/>
  <circle cx="252.8" cy="6.7" r="2.8" fill="#3a3028" opacity="0.85"/>
  <circle cx="370.0" cy="385.0" r="0.4" fill="#3a3028" opacity="0.24"/>
  <circle cx="130.0" cy="173.1" r="0.5" fill="#3a3028" opacity="0.29"/>
  <circle cx="358.0" cy="132.7" r="0.5" fill="#3a3028" opacity="0.39"/>
  <circle cx="5.0" cy="240.7" r="1.4" fill="#3a3028" opacity="0.58"/>
  <circle cx="168.0" cy="168.1" r="1.3" fill="#3a3028" opacity="0.48"/>
  <circle cx="269.4" cy="67.0" r="0.5" fill="#3a3028" opacity="0.30"/>
  <circle cx="282.5" cy="207.1" r="0.3" fill="#3a3028" opacity="0.23"/>
  <circle cx="315.2" cy="384.8" r="1.2" fill="#3a3028" opacity="0.56"/>
  <circle cx="341.6" cy="101.3" r="0.8" fill="#3a3028" opacity="0.23"/>
  <circle cx="316.6" cy="368.2" r="0.5" fill="#3a3028" opacity="0.20"/>
  <circle cx="192.7" cy="59.1" r="0.4" fill="#3a3028" opacity="0.45"/>
  <circle cx="346.9" cy="345.5" r="1.1" fill="#3a3028" opacity="0.48"/>
  <circle cx="230.0" cy="221.6" r="1.1" fill="#3a3028" opacity="0.41"/>
  <circle cx="267.5" cy="64.1" r="0.7" fill="#3a3028" opacity="0.24"/>
  <circle cx="101.0" cy="399.5" r="2.3" fill="#3a3028" opacity="0.89"/>
  <circle cx="197.4" cy="54.1" r="0.5" fill="#3a3028" opacity="0.42"/>
  <circle cx="278.9" cy="299.8" r="0.6" fill="#3a3028" opacity="0.26"/>
  <circle cx="317.8" cy="388.1" r="1.3" fill="#3a3028" opacity="0.37"/>
  <circle cx="13.6" cy="169.2" r="0.7" fill="#3a3028" opacity="0.38"/>
  <circle cx="199.9" cy="164.5" r="1.2" fill="#3a3028" opacity="0.52"/>
  <circle cx="360.4" cy="177.5" r="0.5" fill="#3a3028" opacity="0.31"/>
  <circle cx="302.8" cy="269.4" r="0.4" fill="#3a3028" opacity="0.39"/>
  <circle cx="319.4" cy="364.1" r="0.7" fill="#3a3028" opacity="0.48"/>
  <circle cx="121.3" cy="213.7" r="0.8" fill="#3a3028" opacity="0.22"/>
  <circle cx="189.4" cy="225.5" r="0.7" fill="#3a3028" opacity="0.31"/>
  <circle cx="370.9" cy="259.0" r="0.5" fill="#3a3028" opacity="0.47"/>
  <circle cx="313.1" cy="339.3" r="0.4" fill="#3a3028" opacity="0.18"/>
  <circle cx="83.6" cy="19.8" r="1.0" fill="#3a3028" opacity="0.55"/>
  <circle cx="199.2" cy="323.3" r="2.9" fill="#3a3028" opacity="0.87"/>
  <circle cx="247.5" cy="210.1" r="0.8" fill="#3a3028" opacity="0.28"/>
  <circle cx="377.5" cy="97.9" r="0.7" fill="#3a3028" opacity="0.30"/>
  <circle cx="173.7" cy="170.3" r="0.7" fill="#3a3028" opacity="0.36"/>
  <circle cx="389.8" cy="383.0" r="1.1" fill="#3a3028" opacity="0.66"/>
  <circle cx="228.5" cy="142.9" r="0.5" fill="#3a3028" opacity="0.17"/>
  <circle cx="120.9" cy="302.3" r="0.6" fill="#3a3028" opacity="0.21"/>
  <circle cx="391.9" cy="217.1" r="1.2" fill="#3a3028" opacity="0.61"/>
</svg>